<?xml version="1.0" encoding="UTF-8" standalone="no"?>
<svg
   xml:space="preserve"
   width="750"
   height="154"
   viewBox="0 0 75000 15359"
   preserveAspectRatio="xMidYMid meet"
   version="1.1"
   id="svg38"
   sodipodi:docname="scus-logo.svg"
   inkscape:version="1.1.2 (0a00cf5339, 2022-02-04)"
   xmlns:inkscape="http://www.inkscape.org/namespaces/inkscape"
   xmlns:sodipodi="http://sodipodi.sourceforge.net/DTD/sodipodi-0.dtd"
   xmlns="http://www.w3.org/2000/svg"
   xmlns:svg="http://www.w3.org/2000/svg"><defs
   id="defs42" /><sodipodi:namedview
   id="namedview40"
   pagecolor="#ffffff"
   bordercolor="#666666"
   borderopacity="1.0"
   inkscape:pageshadow="2"
   inkscape:pageopacity="0.0"
   inkscape:pagecheckerboard="0"
   showgrid="false"
   inkscape:zoom="0.133786"
   inkscape:cx="-489.58783"
   inkscape:cy="-661.50417"
   inkscape:window-width="1920"
   inkscape:window-height="1128"
   inkscape:window-x="0"
   inkscape:window-y="0"
   inkscape:window-maximized="1"
   inkscape:current-layer="svg38" />
  <style
   type="text/css"
   id="style2">
    .fil0 {fill:black;fill-rule:nonzero}
    .fil1 {fill:#DA291C;fill-rule:nonzero}
  </style>
  
  
  
  
  
  
  
  
  
  
  
  
  
  
  
   
  <g
   id="g876"
   transform="matrix(3.6246644,0,0,3.6246644,-89201.411,-19232.545)"><path
     class="fil0"
     d="m 20464,6223 c -27,53 -67,93 -107,133 -40,27 -93,40 -147,40 -66,0 -120,-13 -173,-53 -66,-40 -133,-67 -213,-120 -93,-40 -173,-80 -267,-120 -106,-40 -226,-53 -346,-53 -187,-13 -360,40 -507,147 -106,93 -173,239 -160,386 0,93 27,187 107,267 80,80 160,133 267,173 120,53 240,106 373,133 133,40 280,93 426,133 147,54 294,107 427,187 133,67 266,160 373,267 107,106 200,239 267,386 66,173 106,360 106,560 0,226 -40,453 -120,680 -80,200 -200,386 -360,546 -173,160 -373,293 -586,373 -253,94 -520,133 -786,133 -160,0 -334,-13 -494,-53 -159,-27 -333,-80 -493,-146 -160,-54 -306,-134 -439,-214 -134,-80 -254,-173 -360,-279 l 360,-560 c 26,-40 66,-80 106,-107 53,-27 93,-40 160,-40 80,0 147,27 213,67 67,40 160,93 240,146 107,54 200,107 320,147 133,53 280,67 427,67 186,13 360,-40 506,-147 133,-120 200,-280 187,-453 0,-107 -27,-213 -107,-293 -67,-80 -160,-147 -267,-187 -120,-53 -239,-93 -373,-133 -133,-40 -280,-80 -426,-120 -147,-53 -293,-107 -427,-173 -133,-67 -266,-160 -373,-267 -120,-120 -200,-267 -266,-413 -67,-200 -107,-400 -107,-613 0,-200 40,-387 120,-573 80,-187 200,-360 346,-493 160,-147 347,-267 560,-347 240,-93 507,-133 760,-133 160,0 306,13 466,40 147,26 294,66 427,106 133,54 253,107 386,174 120,66 214,146 320,226 z"
     id="path4" /><path
     class="fil0"
     d="m 23942,10368 c -80,0 -160,-13 -226,-40 -67,-40 -107,-107 -134,-173 l -80,-200 c -93,80 -173,146 -253,200 -80,53 -173,106 -253,146 -93,40 -187,67 -280,94 -107,26 -227,26 -333,26 -147,0 -307,-13 -453,-66 -120,-40 -240,-107 -347,-187 -93,-80 -173,-187 -213,-307 -53,-133 -80,-279 -80,-426 0,-133 40,-267 93,-386 80,-147 200,-280 333,-374 200,-133 414,-226 640,-279 333,-81 680,-120 1026,-107 v -160 c 14,-160 -26,-333 -133,-466 -93,-94 -226,-147 -373,-147 -107,0 -213,13 -307,40 -80,27 -146,53 -213,93 -66,40 -120,67 -186,93 -67,27 -147,40 -214,40 -66,0 -133,-13 -186,-53 -53,-40 -93,-80 -120,-133 l -200,-333 c 213,-187 453,-334 720,-427 280,-93 559,-146 853,-146 200,0 399,26 586,106 173,67 320,160 440,293 120,134 213,280 280,454 66,186 93,373 93,573 v 2239 h -480 z m -1239,-653 c 120,0 253,-27 360,-67 119,-53 226,-133 319,-240 v -493 c -173,0 -359,14 -533,40 -120,14 -226,54 -333,107 -67,27 -133,80 -173,146 -27,54 -53,107 -53,174 -14,93 26,200 106,266 93,54 200,80 307,67 z"
     id="path6" /><path
     class="fil0"
     d="m 27087,10368 h -972 l -1400,-3599 893,1 c 67,0 133,13 187,53 53,27 80,80 106,133 l 493,1613 c 40,133 81,253 107,386 27,134 67,254 93,373 27,-119 54,-253 94,-373 40,-120 80,-253 120,-386 l 519,-1613 c 14,-53 54,-106 107,-133 53,-40 120,-53 187,-53 h 853 z"
     id="path8" /><path
     class="fil0"
     d="m 30379,6716 c 227,0 440,40 653,107 187,67 360,173 507,320 146,146 266,320 333,520 80,226 120,453 120,693 0,66 0,133 -13,200 0,39 -14,80 -40,119 -14,27 -40,54 -80,67 -40,13 -80,13 -120,13 h -2079 c 13,240 106,480 280,653 159,134 359,214 573,200 106,0 213,-13 320,-40 80,-26 159,-66 239,-106 67,-40 134,-67 200,-107 54,-27 120,-40 187,-40 80,0 146,27 200,93 l 306,387 c -106,120 -226,227 -360,306 -119,80 -253,147 -399,187 -134,40 -267,80 -400,93 -133,14 -253,27 -387,27 -240,0 -479,-40 -706,-120 -213,-80 -413,-200 -573,-360 -173,-173 -307,-373 -387,-600 -106,-266 -146,-546 -146,-839 0,-227 40,-467 120,-680 160,-426 493,-773 906,-946 240,-93 493,-147 746,-147 z m 27,747 c -173,-14 -346,53 -480,173 -133,146 -213,320 -226,506 h 1346 c 0,-80 -14,-173 -27,-253 -27,-80 -53,-147 -106,-213 -54,-67 -120,-120 -200,-160 -107,-40 -214,-53 -307,-53 z"
     id="path10" /><path
     class="fil0"
     d="m 35311,10421 c -160,0 -307,-26 -454,-80 -253,-93 -453,-293 -533,-546 -53,-133 -66,-280 -66,-427 V 7516 h -307 c -106,0 -200,-80 -200,-187 0,-13 0,-13 0,-26 v -413 l 573,-107 214,-880 c 26,-106 120,-186 239,-160 h 560 v 1053 h 880 v 733 h -880 v 1786 c 0,80 14,147 67,200 40,53 107,80 173,80 40,0 67,0 93,-13 27,-14 54,-14 67,-27 13,-13 40,-13 53,-27 14,-13 40,-13 67,-13 27,0 53,0 80,27 27,26 40,40 67,66 l 320,507 c -147,106 -294,186 -467,240 -173,40 -360,66 -546,66 z"
     id="path12" /><path
     class="fil0"
     d="M 36817,10368 V 5184 h 1079 v 1905 c 133,-106 267,-200 427,-266 173,-67 360,-107 546,-107 173,0 360,27 520,107 146,66 280,160 386,280 107,133 187,280 240,426 54,174 80,360 80,547 v 2279 H 39016 V 8089 c 13,-147 -40,-293 -120,-413 -94,-107 -227,-160 -360,-147 -120,0 -227,27 -333,80 -107,54 -214,120 -294,200 v 2559 z"
     id="path14" /><path
     class="fil0"
     d="m 42401,6716 c 227,0 440,40 653,107 187,67 360,173 506,320 147,146 267,320 334,520 80,226 120,453 120,693 0,66 0,133 -14,200 0,39 -13,80 -40,119 -13,27 -40,54 -80,67 -40,13 -80,13 -120,13 h -2065 c 13,240 106,480 279,653 160,134 360,214 573,200 107,0 214,-13 320,-40 80,-26 160,-66 240,-106 67,-40 134,-67 200,-107 54,-27 120,-40 187,-40 80,0 146,27 200,93 l 306,387 c -106,120 -226,227 -360,306 -120,80 -253,147 -399,187 -134,40 -267,80 -400,93 -134,14 -254,27 -387,27 -240,0 -480,-40 -706,-120 -213,-80 -413,-200 -573,-360 -174,-173 -307,-373 -387,-600 -106,-266 -146,-546 -146,-839 0,-227 40,-467 119,-680 160,-426 494,-773 907,-946 226,-93 480,-147 733,-147 z m 27,747 c -174,-14 -347,53 -480,173 -134,146 -214,320 -227,506 h 1346 c 0,-80 -13,-173 -26,-253 -27,-80 -54,-147 -107,-213 -53,-67 -120,-120 -200,-160 -107,-40 -200,-53 -306,-53 z"
     id="path16" /><path
     class="fil0"
     d="m 49624,9022 c 27,0 54,0 80,13 27,14 54,27 80,54 l 480,506 c -200,266 -480,480 -786,613 -360,147 -733,213 -1120,213 -359,0 -719,-66 -1066,-200 -306,-133 -573,-319 -799,-559 -227,-240 -387,-533 -507,-840 -120,-347 -173,-693 -173,-1053 0,-360 66,-733 200,-1066 133,-320 320,-600 560,-840 239,-240 533,-426 852,-546 347,-133 720,-200 1107,-200 186,0 373,13 546,53 160,27 333,80 480,147 146,53 280,133 413,213 120,80 240,173 333,280 l -413,546 c -27,40 -53,67 -93,94 -40,26 -94,39 -147,39 -40,0 -80,-13 -120,-26 -40,-27 -80,-40 -120,-67 -40,-26 -93,-53 -146,-93 -54,-40 -120,-67 -187,-93 -80,-27 -160,-54 -240,-67 -106,-27 -213,-27 -333,-27 -200,0 -413,40 -600,120 -173,80 -333,187 -466,334 -133,146 -240,333 -307,519 -80,227 -106,453 -106,693 0,240 26,480 106,707 67,186 160,373 294,520 120,133 266,253 439,319 174,80 347,107 533,107 107,0 200,0 294,-13 80,-14 173,-27 253,-54 80,-26 146,-66 226,-106 80,-40 147,-94 214,-160 26,-27 53,-40 93,-54 66,-13 106,-26 146,-26 z"
     id="path18" /><path
     class="fil0"
     d="M 50811,10368 V 5184 h 1079 v 1905 c 133,-106 267,-200 427,-266 173,-67 359,-107 546,-107 173,0 360,27 520,107 146,66 280,160 386,280 107,133 187,280 240,426 54,174 80,360 80,547 v 2279 H 53010 V 8089 c 13,-147 -40,-293 -120,-413 -94,-107 -227,-160 -360,-147 -120,0 -227,27 -333,80 -107,54 -214,120 -294,200 v 2559 z"
     id="path20" /><path
     class="fil0"
     d="m 56128,5797 c 0,80 -13,160 -53,240 -40,80 -80,146 -147,199 -66,54 -133,107 -213,134 -80,40 -173,53 -253,53 -80,0 -173,-13 -240,-53 -80,-27 -147,-80 -200,-134 -53,-53 -107,-119 -133,-199 -40,-80 -53,-160 -53,-240 0,-80 13,-174 53,-240 26,-80 80,-147 133,-200 53,-53 133,-107 200,-133 80,-27 160,-54 240,-54 93,0 173,14 253,54 160,66 280,186 347,333 53,66 66,146 66,240 z m -120,986 v 3598 H 54929 V 6783 Z"
     id="path22" /><polygon
     class="fil0"
     points="56981,10368 56981,5184 58061,5184 58061,10368 "
     id="polygon24" /><path
     class="fil0"
     d="m 61486,10368 c -53,0 -120,-13 -173,-40 -54,-27 -80,-80 -94,-133 l -80,-280 c -66,80 -146,146 -226,213 -80,67 -160,120 -253,160 -94,40 -187,80 -294,107 -106,26 -226,40 -346,40 -187,0 -360,-40 -520,-120 -160,-80 -306,-214 -413,-360 -120,-173 -213,-373 -267,-573 -66,-253 -106,-520 -93,-773 0,-253 40,-507 107,-747 66,-213 173,-413 320,-599 133,-160 293,-294 493,-400 200,-94 413,-147 626,-147 160,0 320,27 467,80 119,54 239,120 346,213 V 5184 h 1080 v 5184 z m -1093,-760 c 67,0 147,-13 213,-26 67,-14 120,-40 174,-67 53,-27 106,-67 146,-107 53,-40 94,-93 147,-146 V 7742 c -67,-79 -160,-146 -267,-186 -93,-40 -200,-53 -293,-53 -93,0 -187,13 -280,53 -93,40 -160,107 -213,186 -67,107 -120,214 -147,334 -40,160 -53,333 -53,506 0,160 13,320 40,480 27,107 53,213 120,320 40,66 107,133 173,173 80,27 160,53 240,53 z"
     id="path26" /><path
     class="fil0"
     d="M 63005,10368 V 6769 l 640,1 c 40,0 93,0 133,13 27,13 67,27 94,40 26,27 40,53 53,80 13,40 26,80 26,120 l 54,333 c 120,-186 266,-347 440,-480 160,-120 346,-173 533,-173 146,-13 280,40 400,120 l -134,786 c 0,40 -26,80 -53,107 -27,26 -67,26 -107,26 -40,0 -93,0 -133,-13 -67,-13 -133,-13 -200,-13 -280,0 -506,146 -666,453 v 2199 z"
     id="path28" /><path
     class="fil0"
     d="m 67337,6716 c 226,0 440,40 653,107 186,67 360,173 506,320 147,146 267,320 334,520 80,226 119,453 119,693 0,66 0,133 -13,200 0,39 -13,80 -40,119 -13,27 -40,54 -80,67 -40,13 -80,13 -120,13 h -2066 c 14,240 107,480 280,653 160,134 360,214 573,200 107,0 214,-13 320,-40 80,-26 160,-66 240,-106 67,-40 133,-67 200,-107 53,-27 120,-40 187,-40 80,0 146,27 200,93 l 306,387 c -107,120 -226,227 -360,306 -120,80 -253,147 -400,187 -133,40 -266,80 -400,93 -133,14 -253,27 -386,27 -240,0 -480,-40 -706,-120 -214,-80 -414,-200 -573,-360 -174,-173 -307,-373 -387,-600 -107,-266 -146,-546 -146,-839 0,-227 39,-467 119,-680 160,-426 494,-773 907,-946 226,-93 480,-147 733,-147 z m 26,747 c -173,-14 -346,53 -479,173 -134,146 -214,320 -227,506 h 1333 c 0,-80 -13,-173 -27,-253 -26,-80 -53,-147 -106,-213 -54,-67 -120,-120 -200,-160 -94,-40 -200,-53 -294,-53 z"
     id="path30" /><path
     class="fil0"
     d="M 69643,10368 V 6769 l 666,1 c 53,0 120,13 173,40 53,26 80,80 93,133 l 67,213 c 67,-67 147,-120 213,-187 80,-53 160,-106 240,-146 93,-40 173,-67 280,-93 107,-27 213,-40 320,-27 173,0 360,27 520,107 146,66 280,160 386,279 107,134 187,280 240,427 53,173 80,360 80,546 v 2279 H 71841 V 8089 c 14,-147 -39,-293 -119,-413 -94,-107 -227,-160 -360,-147 -120,0 -227,27 -333,80 -107,54 -214,120 -294,200 v 2559 z"
     id="path32" /><path
     class="fil1"
     d="m 13400,3797 c 640,-746 920,-1092 853,-1292 -80,-174 -240,-307 -413,-347 -240,-93 -573,-133 -733,-40 -134,107 -253,240 -360,373 l -200,227 v 0 c -133,-133 -267,-267 -400,-373 C 11174,1492 9975,945 8695,746 8176,199 7509,-54 6843,39 6270,132 5763,479 5457,972 4137,1372 2964,2118 2031,3144 v 0 c -213,-66 -666,14 -959,174 -133,53 -240,173 -280,306 -13,94 27,227 373,640 v 0 C 246,5717 -141,7436 46,9142 c 200,1706 1013,3278 2305,4411 454,400 960,733 1493,986 2506,1213 5438,1107 7850,-279 v 0 c 200,-120 267,-360 173,-560 l -26,-67 c -400,-879 -1600,-3585 -933,-6037 280,-1026 1093,-2119 1786,-2986 v 0 c 746,1147 1119,2506 1066,3879 -40,1253 -467,2465 -1226,3465 -40,40 -40,93 -27,147 l 80,173 c 40,67 120,107 187,67 26,-14 40,-27 53,-41 v 0 c 1986,-2478 2226,-5930 573,-8503 z M 4670,9608 c -266,1346 -319,2733 -173,4105 v 0 C 3991,13460 3511,13127 3071,12754 1898,11741 1112,10355 832,8822 566,7396 806,5917 1512,4650 v 0 0 0 c 266,280 586,600 919,920 813,813 1746,1733 2200,2386 266,373 186,853 39,1652 z M 11801,3518 C 10295,5037 8869,5863 7576,5957 6576,6037 5523,5730 4444,5077 3724,4624 3045,4091 2445,3491 l -40,-40 v 0 C 3151,2651 4084,2078 5137,1758 v 0 0 0 c -107,427 -133,853 -67,1293 107,760 507,1440 1106,1906 853,666 2080,506 2746,-333 27,-40 53,-67 80,-107 440,-626 600,-1399 480,-2159 -27,-147 -54,-293 -94,-426 v 0 c 760,293 1466,706 2066,1252 107,94 227,200 347,334 z"
     id="path34" /><path
     class="fil0"
     d="m 73801,9742 c 0,-54 13,-107 26,-160 14,-54 40,-94 54,-147 26,-40 53,-80 93,-120 40,-40 80,-66 120,-93 40,-27 93,-40 146,-53 54,-14 107,-27 160,-27 54,0 107,13 160,27 54,13 94,40 147,53 40,27 80,53 120,93 40,40 66,80 93,120 27,40 40,93 53,147 14,53 27,106 27,160 0,53 -13,106 -27,160 -13,53 -40,93 -53,146 -27,40 -53,80 -93,120 -40,40 -80,67 -120,93 -40,27 -93,40 -147,54 -53,13 -106,26 -160,26 -53,0 -106,-13 -160,-26 -53,-14 -93,-40 -146,-54 -40,-26 -80,-53 -120,-93 -40,-40 -67,-80 -93,-120 -27,-40 -40,-93 -54,-146 -13,-54 -26,-107 -26,-160 z m 106,0 c 0,66 14,133 40,200 27,66 54,106 107,159 53,54 93,80 147,107 53,27 120,40 186,40 67,0 133,-13 187,-40 53,-27 106,-67 160,-107 53,-40 80,-93 106,-159 27,-67 40,-120 40,-200 0,-40 0,-94 -13,-134 -13,-40 -27,-80 -53,-120 -27,-40 -40,-66 -80,-106 -27,-27 -67,-54 -94,-80 -40,-27 -80,-40 -120,-53 -40,-14 -80,-14 -133,-14 -53,0 -93,0 -133,14 -40,13 -80,26 -120,53 -40,26 -67,53 -93,80 -27,26 -54,66 -80,106 -27,40 -40,80 -54,120 -13,40 0,94 0,134 z m 400,106 v 267 h -173 v -720 h 253 c 93,0 173,13 213,53 40,40 67,94 67,160 0,54 -13,94 -40,120 -27,40 -67,67 -120,80 13,14 27,14 27,27 13,13 13,26 26,40 l 147,240 h -160 c -27,0 -40,-14 -53,-27 l -120,-213 c 0,-14 -14,-14 -14,-14 0,0 -13,0 -26,0 h -27 z m 0,-133 h 67 c 26,0 53,0 66,-13 14,-14 27,-14 40,-27 14,-13 14,-27 27,-40 0,-13 0,-27 0,-40 0,-13 0,-27 0,-40 0,-13 -13,-27 -13,-27 -14,-13 -27,-13 -40,-13 -14,0 -40,0 -67,0 h -80 z"
     id="path36" /></g>
</svg>
